HIERARCHY
ROOT root
{
	OFFSET 0.000000 0.000000 0.000000
	CHANNELS 6 Xposition Yposition Zposition Zrotation Yrotation Xrotation
	JOINT lhip
	{
		OFFSET 0.058581 -0.082280 -0.017664
		CHANNELS 3 Zrotation Yrotation Xrotation
		JOINT lknee
		{
			OFFSET 0.043451 -0.386469 0.008037
			CHANNELS 3 Zrotation Yrotation Xrotation
			JOINT lankle
			{
				OFFSET -0.014790 -0.426874 -0.037428
				CHANNELS 3 Zrotation Yrotation Xrotation
				JOINT ltoe
				{
					OFFSET 0.041054 -0.060286 0.122042
					CHANNELS 3 Zrotation Yrotation Xrotation
					End Site
					{
						OFFSET 0.000000 0.000000 0.000000
					}
				}
			}
		}
	}
	JOINT rhip
	{
		OFFSET -0.060310 -0.090513 -0.013543
		CHANNELS 3 Zrotation Yrotation Xrotation
		JOINT rknee
		{
			OFFSET -0.043257 -0.383688 -0.004843
			CHANNELS 3 Zrotation Yrotation Xrotation
			JOINT rankle
			{
				OFFSET 0.019056 -0.420046 -0.034562
				CHANNELS 3 Zrotation Yrotation Xrotation
				JOINT rtoe
				{
					OFFSET -0.034840 -0.062106 0.130323
					CHANNELS 3 Zrotation Yrotation Xrotation
					End Site
					{
						OFFSET 0.000000 0.000000 0.000000
					}
				}
			}
		}
	}
	JOINT lowerback
	{
		OFFSET 0.004439 0.124404 -0.038385
		CHANNELS 3 Zrotation Yrotation Xrotation
		JOINT upperback
		{
			OFFSET 0.004488 0.137956 0.026820
			CHANNELS 3 Zrotation Yrotation Xrotation
			JOINT chest
			{
				OFFSET -0.002265 0.056032 0.002855
				CHANNELS 3 Zrotation Yrotation Xrotation
				JOINT lowerneck
				{
					OFFSET -0.013390 0.211636 -0.033468
					CHANNELS 3 Zrotation Yrotation Xrotation
					JOINT upperneck
					{
						OFFSET 0.010113 0.088937 0.050410
						CHANNELS 3 Zrotation Yrotation Xrotation
						End Site
						{
							OFFSET 0.000000 0.000000 0.000000
						}
					}
				}
				JOINT lclavicle
				{
					OFFSET 0.071702 0.114000 -0.018898
					CHANNELS 3 Zrotation Yrotation Xrotation
					JOINT lshoulder
					{
						OFFSET 0.122921 0.045205 -0.019046
						CHANNELS 3 Zrotation Yrotation Xrotation
						JOINT lelbow
						{
							OFFSET 0.255332 -0.015649 -0.022946
							CHANNELS 3 Zrotation Yrotation Xrotation
							JOINT lwrist
							{
								OFFSET 0.265709 0.012698 -0.007375
								CHANNELS 3 Zrotation Yrotation Xrotation
								End Site
								{
									OFFSET 0.000000 0.000000 0.000000
								}
							}
						}
					}
				}
				JOINT rclavicle
				{
					OFFSET -0.082954 0.112472 -0.023707
					CHANNELS 3 Zrotation Yrotation Xrotation
					JOINT rshoulder
					{
						OFFSET -0.113228 0.046853 -0.008472
						CHANNELS 3 Zrotation Yrotation Xrotation
						JOINT relbow
						{
							OFFSET -0.260127 -0.014369 -0.031269
							CHANNELS 3 Zrotation Yrotation Xrotation
							JOINT rwrist
							{
								OFFSET -0.269108 0.006794 -0.006027
								CHANNELS 3 Zrotation Yrotation Xrotation
								End Site
								{
									OFFSET 0.000000 0.000000 0.000000
								}
							}
						}
					}
				}
			}
		}
	}
}
MOTION
Frames: 11
Frame Time: 0.033333
-0.211634 0.295569 0.997396 93.431460 1.367924 89.287583 0.081372 0.296811 -2.001841 -3.292040 -6.029641 10.125049 2.215004 2.331785 -12.973963 0.000000 -0.000000 0.000000 1.396601 -2.438171 -5.410464 -1.091710 -2.251693 15.384881 3.713713 -1.984414 -10.044611 0.000000 -0.000000 0.000000 1.900394 2.381800 16.928658 0.716481 -1.495674 -3.512580 2.009578 2.099759 -3.339996 -2.293146 1.827384 -14.480019 1.689858 -6.489259 11.612105 0.097003 -31.496708 -20.973472 -39.155514 -51.718544 8.889687 53.584892 -50.191083 -27.853844 -2.535369 -5.371322 14.274736 8.429151 31.403397 -2.874283 31.878649 31.259650 4.967622 -34.585173 50.977036 -12.525453 14.675672 1.342978 -0.050228 
-0.212495 0.295211 0.997122 93.206913 1.468036 89.230966 0.229154 0.389241 -2.008423 -3.265754 -5.748833 10.137549 2.204314 2.261034 -12.891846 0.000000 -0.000000 0.000000 1.496069 -2.278697 -5.476671 -1.102018 -2.465697 15.454667 3.688436 -1.785540 -10.083305 0.000000 -0.000000 0.000000 1.773307 2.471450 16.867821 0.885767 -1.458516 -2.814647 2.010564 2.167967 -3.897545 -2.155928 2.102832 -14.451942 1.572887 -6.630853 11.889760 0.226392 -31.876300 -20.889544 -38.974731 -51.665867 8.782023 53.803179 -49.779747 -28.249361 -3.239017 -5.571820 14.055579 8.803463 31.413128 -2.715782 32.024317 30.912217 4.902742 -35.661659 51.226582 -13.521354 16.958130 1.923095 -0.826187 
-0.212641 0.295105 0.996805 93.183888 1.554156 89.178242 0.347570 0.405773 -2.010911 -3.252952 -5.665056 10.148880 2.102791 2.219803 -12.820970 0.000000 -0.000000 0.000000 1.614287 -2.274296 -5.365240 -1.125116 -2.378485 15.300012 3.535983 -1.718987 -9.908491 0.000000 -0.000000 0.000000 1.839309 2.439334 17.024636 0.962481 -1.542172 -2.709114 1.985407 2.212685 -4.120858 -2.185919 2.188356 -14.807273 1.454060 -6.973109 12.164448 0.280544 -32.001096 -20.715448 -38.711261 -51.898688 8.536453 53.609306 -49.569483 -27.948539 -4.132058 -5.829434 13.389933 9.221045 31.467873 -2.477591 31.820478 30.838717 4.725695 -35.766393 50.983175 -13.568538 16.682453 2.645668 -0.704101 
-0.212836 0.294998 0.996692 93.132338 1.539334 89.276045 0.345378 0.441297 -2.105404 -3.231507 -5.512734 10.074617 1.939092 1.901967 -12.849042 0.000000 -0.000000 0.000000 1.597136 -2.201797 -5.487832 -1.174008 -2.543890 15.326447 3.636776 -1.497037 -9.846688 0.000000 -0.000000 0.000000 1.638505 2.449871 16.968892 1.176770 -1.748433 -2.930936 2.081623 2.019794 -3.911869 -2.131977 2.738001 -14.727102 1.285385 -7.251559 12.104161 0.426150 -31.867957 -20.437563 -38.266297 -52.074631 8.003192 53.808756 -49.493199 -28.319507 -4.084905 -6.037448 13.250460 9.283548 30.934687 -2.674188 32.283585 31.220592 5.081350 -35.131368 51.432101 -12.895802 15.263480 3.594453 -2.071675 
-0.212476 0.295169 0.996661 92.991003 1.491473 89.322187 0.273015 0.520993 -2.070440 -3.225772 -5.527620 9.933522 2.067770 2.190883 -12.681287 0.000000 -0.000000 0.000000 1.540197 -2.256120 -5.636163 -1.114193 -2.332920 15.400283 3.617719 -1.645261 -9.809525 0.000000 -0.000000 0.000000 1.606944 2.451321 16.880198 1.199216 -1.796320 -2.950418 2.019761 2.135734 -3.967716 -2.185361 2.844523 -14.698282 1.385748 -7.256024 12.358374 0.462769 -32.235293 -20.600605 -38.045292 -51.901081 8.283728 53.416278 -49.231095 -28.603795 -3.638320 -6.155763 13.386584 9.836116 31.406647 -2.291464 31.910905 30.738744 5.100200 -36.878225 51.144916 -14.414588 16.110943 2.766666 -0.245108 
-0.212093 0.295053 0.996743 92.828789 1.465332 89.238248 0.244568 0.553726 -1.931236 -3.237969 -5.429360 9.873787 1.987115 2.260652 -12.637282 0.000000 -0.000000 0.000000 1.525463 -2.316675 -5.525831 -1.140388 -2.078025 15.431160 3.655946 -1.530363 -9.873304 0.000000 -0.000000 0.000000 1.621363 2.455078 16.952385 1.296714 -1.823105 -2.979700 2.023484 2.024871 -3.940709 -2.416898 2.895642 -14.782325 1.120308 -7.109606 12.547391 0.724180 -31.929108 -20.354954 -37.812035 -52.155205 7.938812 53.410507 -48.985518 -29.326217 -4.048353 -7.774749 10.745937 9.629286 31.151199 -2.318533 31.763447 30.698303 5.416629 -37.164261 52.086235 -14.754847 16.278103 2.836310 -0.971652 
-0.211936 0.295368 0.996881 92.669036 1.408715 89.144947 0.176865 0.621940 -1.864511 -3.210254 -5.210084 9.978801 1.887294 2.076356 -12.830231 0.000000 -0.000000 0.000000 1.453507 -2.305372 -5.506423 -1.178868 -1.987079 15.558709 3.691462 -1.386595 -9.874930 0.000000 -0.000000 0.000000 1.446703 2.406418 16.970881 1.453593 -1.937704 -3.110834 1.979502 1.860047 -3.667615 -2.258060 3.602538 -15.064710 0.828210 -7.097372 12.630030 0.504948 -31.683319 -20.353489 -37.507640 -52.438346 7.659194 52.735269 -48.692389 -28.298779 -5.457621 -7.561552 10.572842 9.860362 30.059075 -2.510420 31.910379 31.261446 5.705819 -37.650623 54.273025 -14.427848 17.532430 2.861059 -1.072649 
-0.211472 0.295182 0.996895 92.676395 1.354249 89.096630 0.140420 0.746579 -1.851952 -3.234639 -5.266754 10.080562 1.875427 1.945286 -12.884905 0.000000 -0.000000 0.000000 1.464105 -2.142719 -5.535640 -1.205618 -1.752303 15.878362 3.685640 -1.560029 -10.045307 0.000000 -0.000000 0.000000 1.313754 2.542271 16.996979 1.512175 -2.151639 -2.990618 1.960943 1.863531 -3.919458 -2.378662 3.718712 -15.107535 1.103744 -7.075549 12.681553 0.802160 -32.278302 -20.279432 -36.781333 -52.186705 6.910965 51.138769 -47.867397 -27.684640 -5.268080 -7.925354 10.874338 9.650963 29.752412 -2.705440 31.922177 29.577275 6.079781 -41.214642 57.977496 -17.515125 18.156023 3.975671 -1.739419 
-0.210978 0.294682 0.996943 92.891704 1.347338 88.931214 0.185180 0.975263 -1.678639 -3.324628 -5.777756 10.072151 2.032575 2.011441 -12.724803 0.000000 -0.000000 0.000000 1.509636 -2.113872 -5.317173 -1.101176 -1.928873 15.685448 3.442340 -2.185412 -10.058829 0.000000 -0.000000 0.000000 1.082079 2.662265 16.908903 1.816310 -2.693733 -2.853258 1.982076 1.570910 -3.803437 -2.529609 4.078010 -14.888340 1.505939 -6.965697 12.132510 1.234098 -32.773505 -20.431416 -35.632348 -51.779592 5.857704 47.942894 -46.158630 -24.726488 -5.341723 -6.019405 13.401223 9.174882 29.085870 -3.357458 32.616973 28.297278 6.939928 -48.855258 62.293580 -22.898158 20.809323 2.646036 -2.008888 
-0.210957 0.293714 0.996723 93.389850 1.330448 88.961026 0.236078 0.600691 -1.789937 -3.360251 -5.842481 10.100399 1.995245 1.840370 -12.765775 0.000000 -0.000000 0.000000 1.582509 -1.757020 -5.420571 -1.010730 -2.080593 15.846443 3.358149 -3.004956 -10.241687 0.000000 -0.000000 0.000000 0.615290 2.882529 16.307840 2.441575 -3.339667 -2.315965 1.906286 1.189207 -3.630721 -2.054081 4.667641 -14.487470 1.229941 -7.301695 11.442776 1.532884 -32.908293 -20.484430 -34.927520 -51.991879 5.669119 44.070097 -43.321041 -22.186838 -5.573360 -5.549876 13.126530 9.149583 27.983003 -3.885290 32.663930 27.683766 8.300758 -61.570698 65.875138 -34.676972 20.909840 3.622200 -5.535843 
-0.210826 0.292816 0.996426 93.966169 1.162955 89.142251 0.158712 0.262618 -2.096189 -3.424367 -6.226759 10.373116 2.329893 1.589218 -12.479388 0.000000 -0.000000 0.000000 1.459554 -1.660944 -5.624720 -0.940903 -2.285945 16.069803 3.488613 -3.717526 -10.230394 0.000000 -0.000000 0.000000 0.069239 3.044621 15.972077 2.811322 -3.906076 -2.007976 1.816508 0.774536 -3.694167 -1.918669 5.322057 -15.001170 1.036212 -7.270852 11.675778 2.122291 -32.893371 -20.686738 -34.967570 -51.835038 5.729990 39.918539 -40.361719 -18.907071 -7.463567 -4.908807 12.353857 8.543119 27.229752 -4.800593 33.352979 26.891697 9.438722 -80.116618 66.793842 -52.286743 23.737141 4.268916 -8.153593 
